<mxfile host="app.diagrams.net" modified="2024-07-23T15:25:55.113Z" agent="Mozilla/5.0 (Windows NT 10.0; Win64; x64) AppleWebKit/537.36 (KHTML, like Gecko) Chrome/126.0.0.0 Safari/537.36" etag="_l1dDtggYUOa8IV1JD-6" version="24.7.2" type="github">
  <diagram name="Page-1" id="LS8qlfN2t4GBDAO74IhN">
    <mxGraphModel dx="1834" dy="1266" grid="1" gridSize="10" guides="1" tooltips="1" connect="1" arrows="1" fold="1" page="0" pageScale="1" pageWidth="850" pageHeight="1100" math="0" shadow="0">
      <root>
        <mxCell id="0" />
        <mxCell id="1" parent="0" />
        <mxCell id="9D3kddcFtgOKqC1xsIAe-3" value="DataRaptors" style="edgeStyle=orthogonalEdgeStyle;rounded=0;orthogonalLoop=1;jettySize=auto;html=1;" parent="1" source="9D3kddcFtgOKqC1xsIAe-1" target="9D3kddcFtgOKqC1xsIAe-2" edge="1">
          <mxGeometry relative="1" as="geometry" />
        </mxCell>
        <mxCell id="9D3kddcFtgOKqC1xsIAe-1" value="CAQH" style="rounded=1;whiteSpace=wrap;html=1;" parent="1" vertex="1">
          <mxGeometry x="40" y="173" width="120" height="60" as="geometry" />
        </mxCell>
        <mxCell id="9D3kddcFtgOKqC1xsIAe-29" style="edgeStyle=orthogonalEdgeStyle;rounded=0;orthogonalLoop=1;jettySize=auto;html=1;exitX=1;exitY=0.5;exitDx=0;exitDy=0;entryX=0;entryY=0.5;entryDx=0;entryDy=0;" parent="1" source="9D3kddcFtgOKqC1xsIAe-2" target="9D3kddcFtgOKqC1xsIAe-4" edge="1">
          <mxGeometry relative="1" as="geometry" />
        </mxCell>
        <mxCell id="9D3kddcFtgOKqC1xsIAe-2" value="Staging Objects" style="whiteSpace=wrap;html=1;rounded=1;fillColor=#f8cecc;strokeColor=#b85450;" parent="1" vertex="1">
          <mxGeometry x="281" y="173" width="120" height="60" as="geometry" />
        </mxCell>
        <mxCell id="9D3kddcFtgOKqC1xsIAe-4" value="PNM Prod Objects" style="whiteSpace=wrap;html=1;rounded=1;" parent="1" vertex="1">
          <mxGeometry x="479" y="173" width="120" height="60" as="geometry" />
        </mxCell>
        <mxCell id="9D3kddcFtgOKqC1xsIAe-8" value="" style="endArrow=none;html=1;rounded=0;" parent="1" edge="1">
          <mxGeometry width="50" height="50" relative="1" as="geometry">
            <mxPoint x="10" y="290" as="sourcePoint" />
            <mxPoint x="750" y="290" as="targetPoint" />
          </mxGeometry>
        </mxCell>
        <mxCell id="9D3kddcFtgOKqC1xsIAe-11" value="DataRaptors" style="edgeStyle=orthogonalEdgeStyle;rounded=0;orthogonalLoop=1;jettySize=auto;html=1;" parent="1" source="9D3kddcFtgOKqC1xsIAe-12" target="9D3kddcFtgOKqC1xsIAe-14" edge="1">
          <mxGeometry relative="1" as="geometry">
            <mxPoint as="offset" />
          </mxGeometry>
        </mxCell>
        <mxCell id="9D3kddcFtgOKqC1xsIAe-12" value="CAQH" style="rounded=1;whiteSpace=wrap;html=1;" parent="1" vertex="1">
          <mxGeometry x="40" y="352" width="120" height="60" as="geometry" />
        </mxCell>
        <mxCell id="9D3kddcFtgOKqC1xsIAe-13" value="" style="edgeStyle=orthogonalEdgeStyle;rounded=0;orthogonalLoop=1;jettySize=auto;html=1;" parent="1" source="9D3kddcFtgOKqC1xsIAe-14" target="9D3kddcFtgOKqC1xsIAe-15" edge="1">
          <mxGeometry relative="1" as="geometry" />
        </mxCell>
        <mxCell id="5-2Y4VL_QeHb5pzCCtch-17" value="optional" style="edgeStyle=orthogonalEdgeStyle;rounded=0;orthogonalLoop=1;jettySize=auto;html=1;entryX=0.5;entryY=0;entryDx=0;entryDy=0;dashed=1;" edge="1" parent="1" source="9D3kddcFtgOKqC1xsIAe-14" target="5-2Y4VL_QeHb5pzCCtch-11">
          <mxGeometry relative="1" as="geometry" />
        </mxCell>
        <mxCell id="5-2Y4VL_QeHb5pzCCtch-12" value="" style="edgeStyle=orthogonalEdgeStyle;rounded=0;orthogonalLoop=1;jettySize=auto;html=1;dashed=1;" edge="1" parent="1" source="9D3kddcFtgOKqC1xsIAe-14" target="5-2Y4VL_QeHb5pzCCtch-11">
          <mxGeometry relative="1" as="geometry" />
        </mxCell>
        <mxCell id="9D3kddcFtgOKqC1xsIAe-14" value="Staging Objects&lt;div&gt;(no retention policy)&lt;/div&gt;" style="whiteSpace=wrap;html=1;rounded=1;fillColor=#dae8fc;strokeColor=#6c8ebf;" parent="1" vertex="1">
          <mxGeometry x="280" y="352" width="120" height="60" as="geometry" />
        </mxCell>
        <mxCell id="9D3kddcFtgOKqC1xsIAe-15" value="PNM Prod Objects" style="whiteSpace=wrap;html=1;rounded=1;" parent="1" vertex="1">
          <mxGeometry x="479" y="352" width="120" height="60" as="geometry" />
        </mxCell>
        <mxCell id="9D3kddcFtgOKqC1xsIAe-16" value="Custom Objects" style="rounded=1;whiteSpace=wrap;html=1;fillColor=#f8cecc;strokeColor=#b85450;" parent="1" vertex="1">
          <mxGeometry x="-290" y="20" width="120" height="30" as="geometry" />
        </mxCell>
        <mxCell id="9D3kddcFtgOKqC1xsIAe-17" value="Big Object / Ext DB" style="rounded=1;whiteSpace=wrap;html=1;fillColor=#dae8fc;strokeColor=#6c8ebf;" parent="1" vertex="1">
          <mxGeometry x="-290" y="60" width="120" height="30" as="geometry" />
        </mxCell>
        <mxCell id="9D3kddcFtgOKqC1xsIAe-18" value="" style="endArrow=none;html=1;rounded=0;" parent="1" edge="1">
          <mxGeometry width="50" height="50" relative="1" as="geometry">
            <mxPoint x="10" y="608" as="sourcePoint" />
            <mxPoint x="750" y="608" as="targetPoint" />
          </mxGeometry>
        </mxCell>
        <mxCell id="9D3kddcFtgOKqC1xsIAe-19" value="DataRaptors" style="edgeStyle=orthogonalEdgeStyle;rounded=0;orthogonalLoop=1;jettySize=auto;html=1;" parent="1" source="9D3kddcFtgOKqC1xsIAe-20" target="9D3kddcFtgOKqC1xsIAe-22" edge="1">
          <mxGeometry relative="1" as="geometry">
            <mxPoint as="offset" />
          </mxGeometry>
        </mxCell>
        <mxCell id="5-2Y4VL_QeHb5pzCCtch-19" style="edgeStyle=orthogonalEdgeStyle;rounded=0;orthogonalLoop=1;jettySize=auto;html=1;exitX=0.5;exitY=1;exitDx=0;exitDy=0;" edge="1" parent="1" source="9D3kddcFtgOKqC1xsIAe-20" target="9D3kddcFtgOKqC1xsIAe-26">
          <mxGeometry relative="1" as="geometry" />
        </mxCell>
        <mxCell id="9D3kddcFtgOKqC1xsIAe-20" value="CAQH" style="rounded=1;whiteSpace=wrap;html=1;" parent="1" vertex="1">
          <mxGeometry x="40" y="668" width="120" height="60" as="geometry" />
        </mxCell>
        <mxCell id="9D3kddcFtgOKqC1xsIAe-21" value="" style="edgeStyle=orthogonalEdgeStyle;rounded=0;orthogonalLoop=1;jettySize=auto;html=1;" parent="1" source="9D3kddcFtgOKqC1xsIAe-22" target="9D3kddcFtgOKqC1xsIAe-23" edge="1">
          <mxGeometry relative="1" as="geometry" />
        </mxCell>
        <mxCell id="9D3kddcFtgOKqC1xsIAe-22" value="Staging Objects&lt;div&gt;(with retention policy)&lt;/div&gt;" style="whiteSpace=wrap;html=1;rounded=1;fillColor=#f8cecc;strokeColor=#b85450;" parent="1" vertex="1">
          <mxGeometry x="280" y="668" width="120" height="60" as="geometry" />
        </mxCell>
        <mxCell id="9D3kddcFtgOKqC1xsIAe-25" value="" style="edgeStyle=orthogonalEdgeStyle;rounded=0;orthogonalLoop=1;jettySize=auto;html=1;exitX=0.5;exitY=1;exitDx=0;exitDy=0;" parent="1" source="9D3kddcFtgOKqC1xsIAe-23" target="9D3kddcFtgOKqC1xsIAe-24" edge="1">
          <mxGeometry relative="1" as="geometry" />
        </mxCell>
        <mxCell id="9D3kddcFtgOKqC1xsIAe-23" value="PNM Prod Objects" style="whiteSpace=wrap;html=1;rounded=1;" parent="1" vertex="1">
          <mxGeometry x="479" y="668" width="120" height="60" as="geometry" />
        </mxCell>
        <mxCell id="9D3kddcFtgOKqC1xsIAe-28" style="edgeStyle=orthogonalEdgeStyle;rounded=0;orthogonalLoop=1;jettySize=auto;html=1;entryX=0.5;entryY=1;entryDx=0;entryDy=0;" parent="1" source="9D3kddcFtgOKqC1xsIAe-24" target="9D3kddcFtgOKqC1xsIAe-22" edge="1">
          <mxGeometry relative="1" as="geometry" />
        </mxCell>
        <mxCell id="9D3kddcFtgOKqC1xsIAe-24" value="upon success DML, wait n days&amp;nbsp;&lt;span style=&quot;background-color: initial;&quot;&gt;and delete&lt;/span&gt;" style="rhombus;whiteSpace=wrap;html=1;rounded=1;" parent="1" vertex="1">
          <mxGeometry x="450.75" y="828" width="176.5" height="90" as="geometry" />
        </mxCell>
        <mxCell id="9D3kddcFtgOKqC1xsIAe-26" value="Archive Objects and/or Ext DB" style="whiteSpace=wrap;html=1;rounded=1;fillColor=#dae8fc;strokeColor=#6c8ebf;" parent="1" vertex="1">
          <mxGeometry x="660" y="758" width="120" height="60" as="geometry" />
        </mxCell>
        <mxCell id="9D3kddcFtgOKqC1xsIAe-30" value="Current State:" style="text;html=1;align=center;verticalAlign=middle;resizable=0;points=[];autosize=1;strokeColor=none;fillColor=none;fontStyle=1" parent="1" vertex="1">
          <mxGeometry x="30" y="131" width="100" height="30" as="geometry" />
        </mxCell>
        <mxCell id="9D3kddcFtgOKqC1xsIAe-33" value="~900 fields across ~54 Sobjects" style="text;html=1;align=center;verticalAlign=middle;resizable=0;points=[];autosize=1;strokeColor=none;fillColor=none;" parent="1" vertex="1">
          <mxGeometry x="246" y="233" width="190" height="30" as="geometry" />
        </mxCell>
        <mxCell id="5-2Y4VL_QeHb5pzCCtch-8" style="edgeStyle=orthogonalEdgeStyle;rounded=0;orthogonalLoop=1;jettySize=auto;html=1;" edge="1" parent="1" source="5-2Y4VL_QeHb5pzCCtch-3" target="5-2Y4VL_QeHb5pzCCtch-7">
          <mxGeometry relative="1" as="geometry" />
        </mxCell>
        <mxCell id="5-2Y4VL_QeHb5pzCCtch-3" value="CAQH" style="rounded=1;whiteSpace=wrap;html=1;" vertex="1" parent="1">
          <mxGeometry x="40" y="1044" width="120" height="60" as="geometry" />
        </mxCell>
        <mxCell id="5-2Y4VL_QeHb5pzCCtch-4" value="" style="edgeStyle=orthogonalEdgeStyle;rounded=0;orthogonalLoop=1;jettySize=auto;html=1;" edge="1" parent="1" source="5-2Y4VL_QeHb5pzCCtch-5" target="5-2Y4VL_QeHb5pzCCtch-6">
          <mxGeometry relative="1" as="geometry" />
        </mxCell>
        <mxCell id="5-2Y4VL_QeHb5pzCCtch-5" value="Staging Objects" style="whiteSpace=wrap;html=1;rounded=1;fillColor=#dae8fc;strokeColor=#6c8ebf;" vertex="1" parent="1">
          <mxGeometry x="520" y="1044" width="120" height="60" as="geometry" />
        </mxCell>
        <mxCell id="5-2Y4VL_QeHb5pzCCtch-6" value="PNM Prod Objects" style="whiteSpace=wrap;html=1;rounded=1;" vertex="1" parent="1">
          <mxGeometry x="719" y="1044" width="120" height="60" as="geometry" />
        </mxCell>
        <mxCell id="5-2Y4VL_QeHb5pzCCtch-7" value="MuleSoft&lt;div&gt;compare with non-attestID data in Staging objects before insert&lt;/div&gt;&lt;div&gt;&lt;br&gt;&lt;/div&gt;" style="rounded=1;whiteSpace=wrap;html=1;" vertex="1" parent="1">
          <mxGeometry x="256" y="1034" width="180" height="80" as="geometry" />
        </mxCell>
        <mxCell id="5-2Y4VL_QeHb5pzCCtch-10" value="" style="shape=flexArrow;endArrow=classic;startArrow=classic;html=1;rounded=0;exitX=1;exitY=0.5;exitDx=0;exitDy=0;" edge="1" parent="1" source="5-2Y4VL_QeHb5pzCCtch-7" target="5-2Y4VL_QeHb5pzCCtch-5">
          <mxGeometry width="100" height="100" relative="1" as="geometry">
            <mxPoint x="370" y="1164" as="sourcePoint" />
            <mxPoint x="470" y="1064" as="targetPoint" />
          </mxGeometry>
        </mxCell>
        <mxCell id="5-2Y4VL_QeHb5pzCCtch-11" value="Archive DB" style="whiteSpace=wrap;html=1;fillColor=#dae8fc;strokeColor=#6c8ebf;rounded=1;" vertex="1" parent="1">
          <mxGeometry x="280" y="496" width="120" height="60" as="geometry" />
        </mxCell>
        <mxCell id="5-2Y4VL_QeHb5pzCCtch-13" value="Providers attest to their data every quarter and even with no change,&lt;div style=&quot;line-height: 150%;&quot;&gt;&lt;span style=&quot;background-color: initial;&quot;&gt;CAQH publishes each attestation with a new attestation ID. This causes&lt;/span&gt;&lt;/div&gt;&lt;div style=&quot;line-height: 150%;&quot;&gt;&lt;span style=&quot;background-color: initial;&quot;&gt;new rows of information per attestation which results in many rows with identical information.&lt;/span&gt;&lt;/div&gt;" style="text;html=1;align=left;verticalAlign=middle;resizable=0;points=[];autosize=1;strokeColor=none;fillColor=none;fontStyle=1" vertex="1" parent="1">
          <mxGeometry x="40" y="61" width="510" height="60" as="geometry" />
        </mxCell>
        <mxCell id="5-2Y4VL_QeHb5pzCCtch-14" value="save storage limit in SF&lt;div&gt;need to update all Drs to repoint&lt;/div&gt;" style="text;html=1;align=center;verticalAlign=middle;resizable=0;points=[];autosize=1;strokeColor=none;fillColor=none;" vertex="1" parent="1">
          <mxGeometry x="30" y="456" width="190" height="40" as="geometry" />
        </mxCell>
        <mxCell id="5-2Y4VL_QeHb5pzCCtch-15" value="heavy processing in MS&lt;div&gt;requires updates to DRs&lt;/div&gt;&lt;div&gt;&lt;br&gt;&lt;/div&gt;" style="text;html=1;align=center;verticalAlign=middle;resizable=0;points=[];autosize=1;strokeColor=none;fillColor=none;" vertex="1" parent="1">
          <mxGeometry x="60" y="1135" width="150" height="60" as="geometry" />
        </mxCell>
        <mxCell id="5-2Y4VL_QeHb5pzCCtch-16" value="" style="endArrow=none;html=1;rounded=0;" edge="1" parent="1">
          <mxGeometry width="50" height="50" relative="1" as="geometry">
            <mxPoint x="10" y="950" as="sourcePoint" />
            <mxPoint x="750" y="950" as="targetPoint" />
          </mxGeometry>
        </mxCell>
        <mxCell id="5-2Y4VL_QeHb5pzCCtch-18" value="less work and change&lt;div&gt;save storage in SF&lt;/div&gt;" style="text;html=1;align=center;verticalAlign=middle;resizable=0;points=[];autosize=1;strokeColor=none;fillColor=none;" vertex="1" parent="1">
          <mxGeometry x="70" y="823" width="140" height="40" as="geometry" />
        </mxCell>
        <mxCell id="5-2Y4VL_QeHb5pzCCtch-20" value="&lt;b&gt;Legend&lt;/b&gt;" style="text;html=1;align=center;verticalAlign=middle;resizable=0;points=[];autosize=1;strokeColor=none;fillColor=none;" vertex="1" parent="1">
          <mxGeometry x="-315" y="-22" width="70" height="30" as="geometry" />
        </mxCell>
        <mxCell id="5-2Y4VL_QeHb5pzCCtch-22" value="&lt;b&gt;Option 1&lt;/b&gt;" style="text;html=1;align=center;verticalAlign=middle;resizable=0;points=[];autosize=1;strokeColor=none;fillColor=none;" vertex="1" parent="1">
          <mxGeometry x="15" y="298" width="70" height="30" as="geometry" />
        </mxCell>
        <mxCell id="5-2Y4VL_QeHb5pzCCtch-23" value="&lt;b&gt;Option 2&lt;/b&gt;" style="text;html=1;align=center;verticalAlign=middle;resizable=0;points=[];autosize=1;strokeColor=none;fillColor=none;" vertex="1" parent="1">
          <mxGeometry x="10" y="620" width="70" height="30" as="geometry" />
        </mxCell>
        <mxCell id="5-2Y4VL_QeHb5pzCCtch-24" value="&lt;b&gt;Option 3&lt;/b&gt;" style="text;html=1;align=center;verticalAlign=middle;resizable=0;points=[];autosize=1;strokeColor=none;fillColor=none;" vertex="1" parent="1">
          <mxGeometry x="15" y="970" width="70" height="30" as="geometry" />
        </mxCell>
      </root>
    </mxGraphModel>
  </diagram>
</mxfile>
